<?xml version="1.0" encoding="UTF-8" standalone="no"?>
<!-- Created with Inkscape (http://www.inkscape.org/) -->

<svg
   xmlns:dc="http://purl.org/dc/elements/1.1/"
   xmlns:cc="http://creativecommons.org/ns#"
   xmlns:rdf="http://www.w3.org/1999/02/22-rdf-syntax-ns#"
   xmlns:svg="http://www.w3.org/2000/svg"
   xmlns="http://www.w3.org/2000/svg"
   version="1.1"
   width="300"
   height="300"
   id="svg2">
  <defs
     id="defs4">
    <filter
       x="-0.2692003"
       y="-0.2906583"
       width="1.5384007"
       height="1.5813166"
       color-interpolation-filters="sRGB"
       id="filter3827">
      <feGaussianBlur
         stdDeviation="26.303257"
         id="feGaussianBlur3829" />
    </filter>
    <filter
       x="-0.10063626"
       y="-0.042741332"
       width="1.2012725"
       height="1.0854827"
       color-interpolation-filters="sRGB"
       id="filter3890">
      <feGaussianBlur
         stdDeviation="3.2283682"
         id="feGaussianBlur3892" />
    </filter>
    <filter
       color-interpolation-filters="sRGB"
       id="filter3898">
      <feGaussianBlur
         stdDeviation="2.0618884"
         id="feGaussianBlur3900" />
    </filter>
    <filter
       x="-0.14799398"
       y="-0.085023262"
       width="1.295988"
       height="1.1700464"
       color-interpolation-filters="sRGB"
       id="filter3918">
      <feGaussianBlur
         stdDeviation="1.9540976"
         id="feGaussianBlur3920" />
    </filter>
    <filter
       x="-0.14799398"
       y="-0.085023262"
       width="1.295988"
       height="1.1700464"
       color-interpolation-filters="sRGB"
       id="filter3922">
      <feGaussianBlur
         stdDeviation="1.9540976"
         id="feGaussianBlur3924" />
    </filter>
    <filter
       color-interpolation-filters="sRGB"
       id="filter3934">
      <feGaussianBlur
         stdDeviation="1.2913473"
         id="feGaussianBlur3936" />
    </filter>
    <filter
       color-interpolation-filters="sRGB"
       id="filter3950">
      <feGaussianBlur
         stdDeviation="1.0856098"
         id="feGaussianBlur3952" />
    </filter>
    <filter
       color-interpolation-filters="sRGB"
       id="filter3954">
      <feGaussianBlur
         stdDeviation="1.0856098"
         id="feGaussianBlur3956" />
    </filter>
    <filter
       color-interpolation-filters="sRGB"
       id="filter3984">
      <feGaussianBlur
         stdDeviation="1.1922123"
         id="feGaussianBlur3986" />
    </filter>
  </defs>
  <metadata
     id="metadata7">
    <rdf:RDF>
      <cc:Work
         rdf:about="">
        <dc:format>image/svg+xml</dc:format>
        <dc:type
           rdf:resource="http://purl.org/dc/dcmitype/StillImage" />
        <dc:title></dc:title>
      </cc:Work>
    </rdf:RDF>
  </metadata>
  <g
     transform="translate(-225.12061,-339.40399)"
     id="layer3"
     style="display:inline">
    <path
       d="m 478.21428,524.68359 a 102.67857,102.67857 0 1 1 -205.35715,0 102.67857,102.67857 0 1 1 205.35715,0 z"
       transform="matrix(1.171534,0,0,1.1524329,-63.842104,-114.70052)"
       id="path3001"
       style="color:#000000;fill:none;stroke:#000000;stroke-width:32;stroke-linecap:butt;stroke-linejoin:round;stroke-miterlimit:4;stroke-opacity:1;stroke-dasharray:none;stroke-dashoffset:0;marker:none;visibility:visible;display:inline;overflow:visible;filter:url(#filter3898);enable-background:accumulate" />
    <path
       d="m 344.92437,403.40399 c -44.93417,44.31241 -3.99085,174.48102 57.97975,181.27848 l -15.72033,-49.15091 c -5.71429,0.59677 -15.04093,-4.0148 -20.75522,-13.88366 -7.14638,-16.20331 -12.49395,-32.6065 -15.35714,-49.28572 -0.68061,-6.81419 2.0643,-15.20645 9.98821,-18.50995 z"
       transform="translate(-11.803756,0)"
       id="path3771"
       style="fill:none;stroke:#000000;stroke-width:32;stroke-linecap:butt;stroke-linejoin:miter;stroke-miterlimit:4;stroke-opacity:1;stroke-dasharray:none;filter:url(#filter3890)" />
    <path
       d="m 394.24547,530.63615 c -4.22412,1.69467 -3.93551,3.89076 -3.54113,6.0986 l 13.77105,41.70661 c 1.59225,2.8957 3.85245,4.37772 6.49206,4.13131 l 7.86918,-2.55748 c 3.06363,-1.83922 3.38403,-4.13563 3.34439,-6.49206 L 408.21324,529.6525 c -1.15932,-2.66397 -3.10981,-2.55883 -5.31169,-1.57383 z"
       id="path3876"
       style="fill:none;stroke:#000000;stroke-width:32;stroke-linecap:butt;stroke-linejoin:round;stroke-miterlimit:4;stroke-opacity:1;stroke-dasharray:none;filter:url(#filter3918)" />
    <path
       d="m 394.24547,530.63615 c -4.22412,1.69467 -3.93551,3.89076 -3.54113,6.0986 l 13.77105,41.70661 c 1.59225,2.8957 3.85245,4.37772 6.49206,4.13131 l 7.86918,-2.55748 c 3.06363,-1.83922 3.38403,-4.13563 3.34439,-6.49206 L 408.21324,529.6525 c -1.15932,-2.66397 -3.10981,-2.55883 -5.31169,-1.57383 z"
       transform="translate(-44.460816,-137.31703)"
       id="path3902"
       style="fill:none;stroke:#000000;stroke-width:32;stroke-linecap:butt;stroke-linejoin:round;stroke-miterlimit:4;stroke-opacity:1;stroke-dasharray:none;filter:url(#filter3922)" />
  </g>
  <g
     transform="translate(-225.12061,-339.40399)"
     id="layer4"
     style="display:inline">
    <path
       d="m 344.92437,403.40399 c -44.93417,44.31241 -3.99085,174.48102 57.97975,181.27848 l -15.72033,-49.15091 c -5.71429,0.59677 -15.04093,-4.0148 -20.75522,-13.88366 -7.14638,-16.20331 -12.49395,-32.6065 -15.35714,-49.28572 -0.68061,-6.81419 2.0643,-15.20645 9.98821,-18.50995 z"
       transform="translate(-11.803756,0)"
       id="path3788"
       style="fill:none;stroke:#ffffff;stroke-width:24;stroke-linecap:butt;stroke-linejoin:miter;stroke-miterlimit:4;stroke-opacity:1;stroke-dasharray:none;filter:url(#filter3934)" />
    <path
       d="m 394.24547,530.63615 c -4.22412,1.69467 -3.93551,3.89076 -3.54113,6.0986 l 13.77105,41.70661 c 1.59225,2.8957 3.85245,4.37772 6.49206,4.13131 l 7.86918,-2.55748 c 3.06363,-1.83922 3.38403,-4.13563 3.34439,-6.49206 L 408.21324,529.6525 c -1.15932,-2.66397 -3.10981,-2.55883 -5.31169,-1.57383 z"
       id="path3912"
       style="fill:none;stroke:#ffffff;stroke-width:24;stroke-linecap:butt;stroke-linejoin:round;stroke-miterlimit:4;stroke-opacity:1;stroke-dasharray:none;display:inline;filter:url(#filter3954)" />
    <path
       d="m 394.24547,530.63615 c -4.22412,1.69467 -3.93551,3.89076 -3.54113,6.0986 l 13.77105,41.70661 c 1.59225,2.8957 3.85245,4.37772 6.49206,4.13131 l 7.86918,-2.55748 c 3.06363,-1.83922 3.38403,-4.13563 3.34439,-6.49206 L 408.21324,529.6525 c -1.15932,-2.66397 -3.10981,-2.55883 -5.31169,-1.57383 z"
       transform="translate(-44.460816,-137.31703)"
       id="path3915"
       style="fill:none;stroke:#ffffff;stroke-width:24;stroke-linecap:butt;stroke-linejoin:round;stroke-miterlimit:4;stroke-opacity:1;stroke-dasharray:none;display:inline;filter:url(#filter3950)" />
    <path
       d="m 526.84099,510.96323 a 119.21794,119.21794 0 1 1 -238.43588,0 119.21794,119.21794 0 1 1 238.43588,0 z"
       transform="matrix(1.0066078,0,0,0.99175627,-34.957073,-16.772375)"
       id="path3978"
       style="color:#000000;fill:none;stroke:#ffffff;stroke-width:24;stroke-linecap:butt;stroke-linejoin:round;stroke-miterlimit:4;stroke-opacity:1;stroke-dasharray:none;stroke-dashoffset:0;marker:none;visibility:visible;display:inline;overflow:visible;filter:url(#filter3984);enable-background:accumulate" />
  </g>
</svg>
